# xmcd
#
# Track frame offsets:
#	150
#	18680
#	61960
#	79435
#	104420
#	137410
#	158500
#	198720
#	216685
#
# Disc length: 3133 seconds
#
# Revision: 8
# Processed by: cddbd v1.5.2PL0 Copyright (c) Steve Scherf et al.
# Submitted via: audiograbber 1.83.01
#
DISCID=840c3b09
DTITLE=The O'Jays - Ship Ahoy
DYEAR=1973
DGENRE=Soul Oldies
TTITLE0=Put Your Hands Together
TTITLE1=Ship Ahoy
TTITLE2=This Air I Breathe
TTITLE3=You Got Your Hooks In Me
TTITLE4=For The Love Of Money
TTITLE5=Now That We Found Love
TTITLE6=Don't Call Me Brother
TTITLE7=People Keep Tellin' Me
TTITLE8=Put Your Hands Together (Live In London)
EXTD=The O'Jays - Original Album Classics (2014) [Box-Set]\n\nMARO\n
EXTT0=
EXTT1=
EXTT2=
EXTT3=
EXTT4=
EXTT5=
EXTT6=
EXTT7=
EXTT8=
PLAYORDER=
